<?xml version="1.0" encoding="iso-8859-1"?>
<!-- Generator: Adobe Illustrator 19.1.0, SVG Export Plug-In . SVG Version: 6.00 Build 0)  -->
<!DOCTYPE svg PUBLIC "-//W3C//DTD SVG 1.1//EN" "http://www.w3.org/Graphics/SVG/1.1/DTD/svg11.dtd">
<svg version="1.1" id="Layer_1" xmlns="http://www.w3.org/2000/svg" xmlns:xlink="http://www.w3.org/1999/xlink" x="0px" y="0px"
	 viewBox="0 0 500 182.594" style="enable-background:new 0 0 500 182.594;" xml:space="preserve" width="260" height="95">
<g>
	<path fill="#675ff2" d="M50.924,167.119V77.591l382.852-65.473v89.527L50.924,167.119z M56.993,82.721v77.191l370.715-63.396V19.325L56.993,82.721
		z"/>
</g>
<g>
	<g>
		<polygon fill="#675ff2" points="394,138.573 394,115.78 400,114.757 400,131.268 470.392,118.935 450.491,91.495 469.696,59.373 441,64.022
			441,58.294 481.831,50.944 457.914,91.153 481.224,123.284 		"/>
	</g>
</g>
<g>
	<g>
		<polygon fill="#675ff2" points="91,42.258 91,65.051 85,66.074 85,49.563 14.888,61.896 34.929,89.336 16.014,121.458 45,116.809 45,122.537
			3.95,129.887 27.756,89.678 4.111,57.547 		"/>
	</g>
</g>
<g>
	<g>
		<path fill="#675ff2" d="M206.255,107.712c0.823-0.147,1.605-0.814,2.345-2.001c0.734-1.219,1.133-2.414,1.198-3.582l6.191,1.295
			c-0.867,3.728-2.32,6.829-4.36,9.302c-1.818,2.196-3.847,3.493-6.085,3.892c-2.107,0.376-3.989-0.275-5.646-1.954
			c-1.746-1.798-2.915-4.363-3.506-7.696c-0.591-3.331-0.726-6.625-0.404-9.882c0.322-3.255,1.055-6.254,2.199-8.993
			c1.144-2.739,2.675-5.062,4.596-6.971c1.92-1.907,4.18-3.093,6.781-3.556c1.679-0.3,3.225,0.089,4.639,1.164
			c1.386,1.114,2.27,2.743,2.651,4.887l0.114,0.643c0.035,0.198,0.056,0.416,0.065,0.652l-6.301,2.961
			c-0.541-0.754-1.084-1.083-1.627-0.986c-0.543,0.097-1.056,0.512-1.537,1.244c-0.481,0.732-0.923,1.645-1.323,2.737
			c-0.401,1.092-0.755,2.304-1.062,3.635c-0.307,1.331-0.547,2.659-0.719,3.982c-0.43,2.935-0.494,5.252-0.192,6.951
			C204.574,107.136,205.235,107.894,206.255,107.712z"/>
	</g>
	<g>
		<path fill="#675ff2" d="M219.209,114.132l0.222-37.201l15.755-4.237c-0.096,0.8-0.163,1.569-0.202,2.307c-0.039,0.739-0.079,1.469-0.12,2.191
			c-0.042,0.722-0.065,1.356-0.07,1.902c-0.97,0.275-2.311,0.565-4.023,0.87l-3.407,0.607l-0.161,9.421
			c1.793-0.422,3.296-0.757,4.508-1.008c1.212-0.249,1.996-0.423,2.353-0.521c0.038,0.981,0.08,1.934,0.126,2.861
			c0.045,0.928,0.071,1.885,0.077,2.871c-0.357,0.098-0.912,0.222-1.666,0.373c-0.755,0.152-1.541,0.318-2.358,0.497
			c-0.817,0.18-1.734,0.378-2.748,0.592l-0.068,9.66l7.148-2.499l0.534,5.877L219.209,114.132z"/>
	</g>
	<g>
		<path fill="#675ff2" d="M245.862,101.98c1.233-0.322,2.969-0.682,5.209-1.081c0.294,1.275,0.579,2.304,0.854,3.089
			c0.275,0.785,0.472,1.363,0.588,1.733c0.117,0.371,0.203,0.619,0.26,0.745l-1.54,0.224c-3.457,0.616-6.842,1.543-10.154,2.78
			c-1.079,0.43-2.053,0.876-2.922,1.337c-0.293-6.243-0.387-12.845-0.281-19.806c0.105-6.961,0.212-12.816,0.32-17.566l8.678-2.772
			c-0.754,13.542-1.124,21.843-1.106,24.903C245.784,98.625,245.816,100.764,245.862,101.98z"/>
	</g>
	<g>
		<path fill="#675ff2" d="M254.733,107.801l0.222-37.201l15.755-4.238c-0.096,0.8-0.163,1.569-0.202,2.308c-0.039,0.739-0.079,1.469-0.121,2.191
			c-0.042,0.722-0.065,1.356-0.07,1.901c-0.97,0.275-2.312,0.565-4.023,0.871l-3.408,0.607l-0.161,9.421
			c1.793-0.422,3.296-0.757,4.508-1.008c1.212-0.249,1.996-0.423,2.353-0.521c0.038,0.981,0.08,1.934,0.126,2.861
			c0.045,0.928,0.071,1.885,0.077,2.871c-0.357,0.097-0.912,0.222-1.666,0.373c-0.755,0.152-1.54,0.318-2.357,0.497
			c-0.817,0.18-1.734,0.378-2.748,0.592l-0.068,9.66l7.148-2.499l0.534,5.877L254.733,107.801z"/>
	</g>
	<g>
		<path fill="#675ff2" d="M293.724,87.937c0.217,1.221,0.142,2.476-0.223,3.765c-0.366,1.29-0.949,2.501-1.75,3.63
			c-0.802,1.13-1.788,2.174-2.959,3.13c-1.172,0.958-2.438,1.813-3.799,2.566c-2.656,1.495-5.465,2.506-8.428,3.034
			c-1.252,0.223-2.438,0.332-3.559,0.328c0.565-6.192,0.792-12.374,0.681-18.549c-0.111-6.173-0.261-12.374-0.45-18.603
			c4.439-1.778,8.124-2.928,11.054-3.451c3.457-0.616,6.071,0.143,7.843,2.278c0.684,0.797,1.143,1.847,1.374,3.149
			c0.231,1.304,0.24,2.553,0.028,3.748c-0.213,1.195-0.566,2.313-1.06,3.353c-1.022,2.089-2.41,3.646-4.163,4.673
			C291.305,82.158,293.109,84.473,293.724,87.937z M281.166,92.677c2.937-0.863,4.895-2.08,5.873-3.651
			c0.421-0.687,0.568-1.394,0.439-2.12c-0.129-0.726-0.387-1.266-0.772-1.623c-0.387-0.357-0.849-0.623-1.39-0.799
			c-1.081-0.351-2.199-0.425-3.351-0.219l-0.445,0.079c-0.132,0.023-0.261,0.064-0.386,0.12c0.015,0.848,0.02,1.596,0.016,2.243
			c-0.004,0.648-0.004,1.269,0,1.863c0.004,0.596,0.003,1.217-0.001,1.863C281.145,91.081,281.151,91.829,281.166,92.677z
			 M281.213,78.018c3.951-1.657,5.807-3.161,5.567-4.514c-0.229-1.287-1.426-1.907-3.591-1.861
			c-0.545-0.005-1.014,0.028-1.409,0.098l-0.543,0.097c-0.002,0.376,0.002,0.825,0.011,1.351c0.008,0.526,0.012,1.07,0.009,1.631
			c-0.002,0.562-0.013,1.126-0.031,1.691C281.206,77.075,281.202,77.578,281.213,78.018z"/>
	</g>
	<g>
		<path fill="#675ff2" d="M311.508,96.814c-4.129-8.52-6.35-13.381-6.665-14.585l-0.607,0.313c-0.009,6.263,0.001,11.009,0.031,14.236l-7.82,3.589
			c0.478-17.202,0.478-29.351,0-36.447c3.608-1.868,7.783-3.225,12.524-4.07c3.556-0.634,5.882,0.228,6.98,2.584
			c0.332,0.724,0.598,1.647,0.797,2.767c0.199,1.122,0.184,2.375-0.046,3.76c-0.23,1.386-0.634,2.742-1.214,4.07
			c-1.219,2.701-2.916,4.909-5.09,6.624c1.776,2.542,3.384,4.953,4.825,7.231c1.441,2.279,2.656,4.197,3.646,5.756L311.508,96.814z
			 M306.81,67.483l-2.164,0.437l-0.198,8.356c1.293-0.366,2.806-1.503,4.54-3.412c1.793-1.953,2.599-3.441,2.417-4.464
			c-0.17-0.956-1.172-1.339-3.006-1.148C307.866,67.312,307.336,67.39,306.81,67.483z"/>
	</g>
	<g>
		<path fill="#675ff2" d="M325.733,74.32c-2.379-1.345-3.761-3.107-4.148-5.284c-0.263-1.484-0.075-3.007,0.565-4.567
			c0.64-1.56,1.579-3.013,2.818-4.357c1.239-1.344,2.712-2.516,4.419-3.519c1.707-1.001,3.383-1.649,5.03-1.942
			c1.646-0.293,3.042-0.321,4.189-0.083c1.146,0.238,2.146,0.656,2.999,1.252c1.629,1.139,2.636,2.797,3.023,4.974
			c0.515,2.903-0.208,5.619-2.171,8.146c-0.64,0.796-1.416,1.495-2.327,2.099c2.66,1.976,4.254,4.448,4.781,7.417
			c0.311,1.749,0.204,3.495-0.318,5.238c-0.523,1.745-1.384,3.353-2.582,4.825c-2.576,3.284-5.987,5.304-10.234,6.061
			c-4.972,0.886-8.465-0.04-10.479-2.777c-0.72-0.995-1.196-2.143-1.427-3.447c-0.231-1.302-0.309-2.599-0.232-3.889
			c0.077-1.29,0.344-2.554,0.804-3.793C321.473,77.87,323.236,75.753,325.733,74.32z M337.415,80.432
			c-0.272-1.534-0.833-2.583-1.679-3.147c-0.847-0.564-1.715-0.766-2.604-0.607c-0.889,0.158-1.738,0.497-2.546,1.015
			c-0.808,0.519-1.522,1.139-2.14,1.861c-1.406,1.647-1.98,3.195-1.723,4.646c0.152,0.858,0.623,1.548,1.412,2.071
			c0.788,0.523,1.9,0.657,3.332,0.402c1.432-0.256,2.543-0.598,3.333-1.028c0.79-0.429,1.407-0.922,1.852-1.478
			C337.433,83.21,337.688,81.965,337.415,80.432z M336.074,68.572c0.415-0.533,0.728-1.108,0.942-1.724
			c0.213-0.616,0.279-1.155,0.197-1.618c-0.082-0.462-0.258-0.83-0.528-1.106c-0.27-0.275-0.587-0.482-0.951-0.621
			c-0.724-0.246-1.504-0.294-2.344-0.144c-0.84,0.15-1.509,0.396-2.008,0.741c-0.499,0.344-0.895,0.746-1.187,1.207
			c-0.556,0.883-0.75,1.802-0.58,2.758c0.17,0.957,0.545,1.682,1.125,2.173c0.579,0.493,1.231,0.674,1.956,0.545
			c0.724-0.129,1.364-0.396,1.921-0.802C335.173,69.575,335.659,69.105,336.074,68.572z"/>
	</g>
	<g>
		<path fill="#675ff2" d="M348.112,91.108c0.373-18.749,0.44-31.097,0.199-37.044c1.402-0.522,2.822-1.039,4.259-1.55
			c1.438-0.511,3.004-0.918,4.7-1.221c1.695-0.302,3.228-0.277,4.598,0.074c1.369,0.352,2.541,0.968,3.512,1.849
			c1.86,1.677,3.083,4.164,3.669,7.462c0.644,3.629,0.368,7.625-0.826,11.99c-1.265,4.548-3.292,8.431-6.083,11.651
			c-3.2,3.599-6.922,5.776-11.169,6.533C350.246,90.983,349.293,91.067,348.112,91.108z M355.863,83.397
			c2.041-1.895,3.617-5.357,4.728-10.388c0.624-2.799,0.958-5.123,1.004-6.968c0.045-1.846-0.022-3.28-0.203-4.303
			c-0.182-1.022-0.681-1.826-1.498-2.413c-0.817-0.585-1.967-0.747-3.449-0.482c-0.056,2.937-0.157,6.102-0.301,9.497
			C355.91,74.098,355.816,79.117,355.863,83.397z"/>
	</g>
	<g>
		<path fill="#675ff2" d="M377.257,65.137c-2.379-1.345-3.761-3.107-4.148-5.284c-0.264-1.484-0.075-3.007,0.565-4.567
			c0.64-1.56,1.579-3.013,2.818-4.357c1.239-1.344,2.712-2.516,4.419-3.519c1.707-1.001,3.383-1.649,5.03-1.942
			c1.646-0.293,3.042-0.32,4.188-0.083c1.146,0.238,2.146,0.656,3,1.252c1.629,1.139,2.636,2.797,3.022,4.974
			c0.515,2.903-0.208,5.619-2.171,8.146c-0.641,0.795-1.416,1.495-2.327,2.099c2.66,1.976,4.255,4.449,4.782,7.417
			c0.31,1.749,0.204,3.495-0.319,5.238c-0.523,1.745-1.383,3.353-2.582,4.825c-2.576,3.284-5.988,5.304-10.235,6.061
			c-4.972,0.886-8.465-0.04-10.479-2.777c-0.72-0.995-1.195-2.143-1.427-3.447c-0.231-1.302-0.309-2.599-0.232-3.889
			c0.077-1.29,0.345-2.554,0.804-3.792C372.997,68.687,374.76,66.57,377.257,65.137z M388.94,71.249
			c-0.273-1.534-0.833-2.583-1.68-3.147c-0.847-0.564-1.715-0.766-2.604-0.607c-0.889,0.158-1.738,0.497-2.545,1.015
			c-0.808,0.519-1.522,1.139-2.141,1.862c-1.406,1.647-1.98,3.195-1.722,4.646c0.152,0.858,0.623,1.548,1.412,2.071
			c0.788,0.523,1.9,0.657,3.332,0.402c1.432-0.256,2.543-0.598,3.333-1.028c0.79-0.429,1.407-0.922,1.852-1.478
			C388.956,74.028,389.212,72.782,388.94,71.249z M387.598,59.39c0.415-0.533,0.729-1.108,0.942-1.725
			c0.213-0.616,0.28-1.155,0.197-1.618c-0.082-0.462-0.257-0.83-0.527-1.106c-0.271-0.275-0.587-0.482-0.951-0.621
			c-0.723-0.246-1.504-0.293-2.344-0.144c-0.84,0.15-1.509,0.396-2.008,0.741c-0.499,0.344-0.895,0.746-1.187,1.207
			c-0.557,0.883-0.75,1.802-0.58,2.758c0.17,0.957,0.545,1.682,1.125,2.173c0.579,0.493,1.232,0.674,1.956,0.545
			c0.724-0.129,1.364-0.396,1.921-0.802C386.698,60.393,387.183,59.923,387.598,59.39z"/>
	</g>
</g>
<g>
	<g>
		<path fill="#675ff2" d="M168.039,116.508c-2.546,2.645-4.946,4.194-7.199,4.652c-2.492,0.505-4.554,0.161-6.184-1.035
			c-1.47-1.067-2.356-2.573-2.66-4.52c-0.304-1.946-0.171-3.859,0.398-5.742c0.569-1.882,1.472-3.71,2.71-5.488
			c2.653-3.991,6.123-6.803,10.412-8.435c0.795-0.321,1.738-0.593,2.831-0.815c2.868-0.582,5.783-0.29,8.748,0.875
			c-0.232,2.577-0.427,5.167-0.585,7.768l-0.464,7.863c4.685-4.283,6.648-8.856,5.889-13.722c-0.534-3.424-2.251-5.846-5.149-7.267
			c-2.595-1.281-5.805-1.534-9.628-0.758c-2.629,0.534-5.174,1.491-7.635,2.874c-2.461,1.382-4.611,3.123-6.449,5.222
			c-1.838,2.099-3.215,4.506-4.13,7.221c-0.915,2.715-1.141,5.551-0.68,8.509c0.462,2.958,1.351,5.729,2.671,8.312l-5.534,8.891
			c-2.758-4.58-4.513-9.283-5.266-14.109c-0.941-6.032-0.113-11.781,2.486-17.247c2.342-4.85,5.903-9.005,10.681-12.465
			c4.489-3.279,9.277-5.434,14.365-6.466c6.043-1.226,11.138-0.17,15.286,3.163c1.884,1.465,3.409,3.283,4.576,5.456
			c1.166,2.172,1.94,4.475,2.319,6.907c0.379,2.433,0.343,4.91-0.109,7.43c-0.452,2.521-1.336,4.869-2.652,7.042
			c-1.317,2.175-3.098,4.071-5.346,5.692c-2.248,1.62-4.977,2.756-8.185,3.406c-2.253,0.457-3.866,0.282-4.837-0.525
			c-0.356-0.248-0.573-0.626-0.652-1.133C167.992,117.562,167.981,117.042,168.039,116.508z M169.614,100.53
			c-0.571-0.044-1.257,0.014-2.059,0.177c-0.803,0.162-1.748,0.595-2.835,1.297c-1.088,0.703-2.029,1.556-2.823,2.56
			c-1.859,2.304-2.598,4.683-2.215,7.135c0.146,0.934,0.511,1.642,1.098,2.126c0.585,0.484,1.425,0.614,2.518,0.393
			c1.844-0.374,3.545-1.201,5.107-2.481L169.614,100.53z"/>
	</g>
</g>
<g>
	<path fill="#675ff2" d="M125.796,106.791c0,0.602,0,0.602,0,1.203c0,9.627-5.405,19.856-16.215,24.068c-3.003,1.203-6.005,1.805-10.209,1.805
		c-3.603,0-7.206-0.602-10.209-1.805c-1.201-0.602-3.003-1.203-4.204-1.805c0.601,0,1.201,0,2.402,0c0.601,0,0.601,0,1.201,0
		c3.603,0,7.206-1.805,10.209-3.61c-2.402,0-4.204-1.203-6.005-2.407c-0.601-1.203-1.802-2.407-2.402-4.212c0.601,0,1.201,0,1.802,0
		s1.802,0,2.402-0.602c-4.204-0.602-7.206-4.212-7.206-8.424l0,0c1.201,0.602,2.402,0.602,4.204,0.602
		c-2.402-1.203-4.204-4.212-4.204-7.22c0-1.805,0.601-3.008,1.201-4.814c1.201,1.805,2.402,3.008,4.204,4.212
		c3.603,3.008,7.807,4.814,12.611,5.415c0.601,0,1.201,0,1.802,0.602c0-0.602,0-1.203,0-1.805c0-6.017,4.204-10.229,9.008-10.229
		c2.402,0,4.804,1.203,6.606,3.008c1.802-0.602,4.204-1.203,6.005-2.407c-0.601,2.407-2.402,4.212-4.204,4.814
		c1.802,0,3.603-0.602,5.405-1.203C128.799,104.385,127.598,105.588,125.796,106.791z"/>
</g>
</svg>
