<svg xmlns="http://www.w3.org/2000/svg" viewBox="0 0 1000 615.761" width="215" height="132" enable-background="new 0 0 1000 615.761"><path fill="#41fbd4" d="M174.785 441.907c.702-2.948 1.51-5.63 2.416-8.046.907-2.416 1.903-4.432 2.984-6.05 1.082-1.615 2.226-2.528 3.435-2.734 1.208-.206 2.408.534 3.598 2.215l14.048-6.466c-.015-.524-.06-1.008-.134-1.448l-.243-1.428c-.813-4.763-2.75-8.39-5.812-10.885-3.123-2.408-6.553-3.295-10.288-2.658-5.787.987-10.828 3.582-15.124 7.78-4.298 4.203-7.737 9.333-10.324 15.39-2.586 6.06-4.263 12.698-5.03 19.916-.768 7.22-.52 14.53.74 21.93s3.816 13.11 7.666 17.13c3.653 3.75 7.824 5.224 12.512 4.425 4.98-.85 9.507-3.693 13.582-8.536 4.572-5.455 7.852-12.31 9.838-20.566l-13.734-2.974c-.163 2.592-1.07 5.235-2.72 7.93-1.664 2.62-3.413 4.087-5.242 4.4-2.27.386-3.727-1.307-4.37-5.08-.642-3.774-.463-8.913.54-15.418.403-2.935.956-5.877 1.66-8.825zM205.605 485.682l35.41-11.804-1.09-13.048-15.922 5.43.307-21.43c2.257-.458 4.296-.882 6.115-1.268 1.817-.384 3.566-.738 5.245-1.064 1.678-.322 2.913-.59 3.708-.802.004-2.187-.038-4.31-.124-6.37-.088-2.057-.166-4.173-.234-6.348-.794.21-2.54.584-5.236 1.118-2.7.537-6.043 1.257-10.033 2.163l.512-20.898 7.58-1.293c3.808-.65 6.794-1.272 8.954-1.866.02-1.21.08-2.616.186-4.218.104-1.6.204-3.22.303-4.858.098-1.636.26-3.342.485-5.115l-35.073 9.146-1.092 82.522zM278.48 463.702c-.6-1.744-1.216-4.033-1.85-6.867-4.98.85-8.844 1.62-11.59 2.315-.083-2.7-.12-7.444-.106-14.232.01-6.788.965-25.197 2.86-55.23l-19.328 6.01c-.316 10.534-.648 23.522-.994 38.963-.348 15.443-.244 30.09.306 43.946 1.938-1.008 4.11-1.98 6.512-2.92 7.38-2.69 14.916-4.69 22.606-6.002l3.425-.47c-.123-.28-.31-.833-.564-1.657-.252-.824-.68-2.108-1.277-3.855zM284.67 472.202l35.41-11.805-1.09-13.046-15.922 5.43.307-21.43c2.257-.46 4.296-.882 6.115-1.268 1.817-.385 3.566-.74 5.245-1.065 1.678-.322 2.913-.59 3.708-.8.003-2.188-.038-4.31-.124-6.37-.09-2.057-.167-4.174-.235-6.35-.794.21-2.54.584-5.236 1.12-2.7.535-6.044 1.256-10.034 2.162l.51-20.898 7.58-1.293c3.808-.65 6.794-1.272 8.954-1.866.02-1.208.08-2.616.186-4.217.104-1.6.204-3.22.303-4.858.097-1.637.258-3.343.484-5.116l-35.073 9.145-1.09 82.522zM359.742 413.26c3.913-2.25 7.02-5.683 9.325-10.3 1.115-2.3 1.917-4.774 2.41-7.423.49-2.645.49-5.416-.003-8.312-.493-2.893-1.495-5.23-3.003-7.01-3.902-4.763-9.697-6.49-17.387-5.178-6.52 1.11-14.725 3.604-24.616 7.476.32 13.822.552 27.58.7 41.277.146 13.7-.457 27.41-1.81 41.14 2.492.026 5.128-.198 7.912-.67 6.59-1.126 12.85-3.324 18.774-6.596 3.035-1.647 5.862-3.524 8.48-5.63 2.62-2.103 4.828-4.403 6.627-6.897 1.798-2.492 3.115-5.168 3.948-8.025.83-2.856 1.018-5.64.556-8.35-1.312-7.695-5.283-12.86-11.912-15.503zm-15.675-10.052c.05-1.253.082-2.502.096-3.75.014-1.245.015-2.45.005-3.618-.01-1.166-.012-2.166 0-2.998l1.208-.206c.88-.15 1.923-.215 3.133-.194 4.81-.065 7.46 1.328 7.947 4.187.512 3.004-3.635 6.313-12.44 9.924-.02-.977-.002-2.093.05-3.346zm12.716 27.862c-2.2 3.468-6.57 6.135-13.108 8.002-.02-1.88-.02-3.54 0-4.977.02-1.435.03-2.813.03-4.134.002-1.317.01-2.696.032-4.133.02-1.434.02-3.094 0-4.976.28-.122.567-.21.86-.26l.99-.167c2.562-.436 5.043-.255 7.44.542 1.2.4 2.223.997 3.076 1.794.85.798 1.415 2.002 1.69 3.613.274 1.612-.064 3.178-1.01 4.697zM378.014 375.535c.948 15.75.754 42.7-.584 80.856l17.433-7.835c-.016-7.16.04-17.687.16-31.582l1.353-.683c.68 2.673 5.538 13.495 14.574 32.464l16.42-9.133c-2.174-3.474-4.844-7.75-8.007-12.828-3.165-5.078-6.7-10.452-10.604-16.12 4.858-3.77 8.664-8.64 11.416-14.615 1.073-2.408 1.87-4.863 2.42-7.36-9.587-5.612-18.446-12.3-26.398-19.903-6.637 1.722-12.707 3.96-18.184 6.74zm33.164 10.18c.387 2.273-1.427 5.56-5.442 9.864-3.882 4.205-7.262 6.704-10.14 7.496l.572-18.533 4.815-.934c1.17-.202 2.35-.363 3.534-.492 4.078-.393 6.3.472 6.66 2.598zM423.1 378.707c-.425-2.49-1-4.54-1.728-6.153-2.402-5.246-7.556-7.195-15.466-5.845-3.37.573-6.595 1.277-9.71 2.085 7.954 7.602 16.812 14.29 26.4 19.903.12-.55.244-1.097.34-1.65.533-3.07.587-5.85.163-8.34zM442.95 399.075c-5.57 3.137-9.524 7.807-11.86 14.01-1.04 2.742-1.655 5.543-1.847 8.402-.19 2.86-.04 5.738.453 8.633.494 2.895 1.53 5.45 3.116 7.668 4.43 6.107 12.177 8.217 23.237 6.332 9.448-1.61 17.06-6.037 22.835-13.282 2.687-3.246 4.625-6.8 5.816-10.662 1.19-3.86 1.454-7.73.792-11.614-.04-.23-.103-.446-.148-.672-15.695-1.023-30.69-4.572-44.58-10.23.684.488 1.402.965 2.185 1.415zm5.942 11.653c1.385-1.593 2.98-2.957 4.785-4.096 1.803-1.136 3.695-1.873 5.672-2.21 1.977-.338 3.9.125 5.776 1.39 1.872 1.265 3.1 3.6 3.68 7.007.58 3.407-.006 6.165-1.756 8.272-.997 1.226-2.377 2.31-4.138 3.25-1.76.942-4.236 1.684-7.422 2.227-3.186.543-5.653.228-7.396-.946-1.746-1.172-2.78-2.71-3.105-4.617-.55-3.222.75-6.648 3.902-10.28zM453.01 379.15c.655-1.018 1.54-1.904 2.655-2.66 1.115-.754 2.606-1.29 4.474-1.61 1.866-.318 3.6-.198 5.204.357.807.315 1.508.78 2.103 1.395.594.616.98 1.435 1.154 2.46.176 1.028.02 2.223-.462 3.586-.458 1.29-1.13 2.49-1.986 3.61 4.23 1.008 8.55 1.795 12.947 2.353.38-.397.746-.807 1.093-1.23 4.4-5.575 6.053-11.59 4.954-18.037-.823-4.836-3.036-8.53-6.636-11.083-1.885-1.337-4.1-2.278-6.642-2.826-2.543-.545-5.646-.507-9.307.116-3.662.626-7.396 2.036-11.206 4.23-3.81 2.195-7.1 4.773-9.875 7.735-2.142 2.285-3.878 4.72-5.23 7.298 4.98 2.71 10.173 5.088 15.552 7.097.232-.95.623-1.88 1.207-2.79zM433.818 387.285c.702 4.117 3.027 7.57 6.945 10.373 13.89 5.66 28.886 9.208 44.58 10.23-1.243-6.292-4.68-11.586-10.355-15.86 1.544-1.006 2.912-2.136 4.11-3.388-4.397-.558-8.716-1.345-12.946-2.352-.05.065-.084.137-.134.2-.93 1.177-2.017 2.21-3.26 3.1-1.243.892-2.67 1.474-4.28 1.75-1.613.274-3.06-.14-4.34-1.24-1.28-1.1-2.1-2.714-2.463-4.84-.192-1.134-.14-2.24.127-3.32-5.38-2.01-10.57-4.387-15.55-7.098-.4.762-.775 1.533-1.105 2.32-1.447 3.455-1.89 6.827-1.33 10.125zM509.765 419.69c-.014-3.824.027-7.928.118-12.285-4.957.518-9.982.808-15.077.808-.564 0-1.123-.025-1.685-.03-.183 8.61-.417 18.107-.7 28.488 2.626-.07 4.745-.24 6.357-.518 9.448-1.61 17.755-6.38 24.92-14.315 4.897-5.557 8.744-12.04 11.574-19.418-5.728 1.68-11.618 2.986-17.625 3.947-2.168 6.03-4.787 10.498-7.88 13.324zM510.526 388.634l.107-2.345c.375-7.53.65-14.55.82-21.064 3.297-.563 5.85-.187 7.655 1.126 1.807 1.314 2.904 3.106 3.29 5.377.387 2.27.514 5.454.383 9.547-.05 1.59-.23 3.388-.477 5.296 6.083-1.374 11.996-3.187 17.7-5.416.236-4.05.06-7.94-.573-11.652-1.247-7.327-3.926-12.865-8.03-16.614-2.145-1.97-4.738-3.358-7.775-4.16-3.04-.8-6.444-.88-10.216-.238-3.774.644-7.26 1.52-10.462 2.633-3.202 1.11-6.365 2.236-9.488 3.37.244 7.327.245 19.048.004 35.127.448.005.893.024 1.343.024 5.327 0 10.568-.36 15.72-1.012zM520.437 396.72c-.822 3.592-1.76 6.78-2.792 9.65 6.007-.962 11.897-2.268 17.626-3.95.785-2.044 1.506-4.145 2.13-6.33 1.47-5.214 2.324-10.186 2.602-14.933-5.702 2.23-11.615 4.042-17.7 5.416-.388 3.006-.99 6.356-1.865 10.147zM494.806 408.214c5.095 0 10.12-.29 15.077-.808.12-5.786.336-12.047.642-18.77-5.15.65-10.392 1.01-15.72 1.01-.45 0-.895-.018-1.343-.023-.085 5.65-.198 11.828-.342 18.56.563.006 1.122.03 1.686.03zM545.475 427.74l17.432-7.835c-.014-6.698.034-16.385.138-28.98-5.375 2.92-10.954 5.513-16.726 7.736-.195 8.846-.474 18.518-.845 29.08zM578.995 420.102l16.42-9.133c-2.174-3.476-4.844-7.75-8.007-12.83-3.113-4.995-6.588-10.28-10.418-15.848-3.81 2.68-7.748 5.194-11.826 7.498 1.763 4.55 6.367 14.645 13.83 30.312zM564.213 355.892l4.815-.934c1.17-.2 2.35-.362 3.534-.49 3.74-.36 5.9.35 6.513 2.108 3.854-3.59 7.468-7.422 10.823-11.473-.153-.422-.312-.825-.48-1.2-2.403-5.246-7.557-7.194-15.468-5.845-10.547 1.798-19.844 4.74-27.89 8.827.466 7.757.654 18.246.567 31.44 6.006-2.764 11.76-5.967 17.19-9.61l.396-12.823zM563.046 390.925l.022-2.604 1.354-.682c.12.465.372 1.193.743 2.15 4.078-2.303 8.016-4.818 11.826-7.497-.062-.09-.12-.178-.184-.27 4.86-3.77 8.665-8.64 11.416-14.615 1.308-2.938 2.228-5.94 2.76-9.01.533-3.068.588-5.848.163-8.34-.326-1.912-.742-3.56-1.246-4.953-3.355 4.05-6.97 7.883-10.824 11.473.056.16.118.313.148.49.387 2.27-1.427 5.557-5.442 9.862-3.882 4.206-7.263 6.705-10.142 7.497l.177-5.712c-5.428 3.644-11.183 6.847-17.19 9.61-.04 6.177-.144 12.97-.306 20.337 5.772-2.222 11.35-4.816 16.726-7.735zM599.046 379.077c.035 4.857.095 9.523.18 13.994.083 4.473.175 7.57.28 9.285.104 1.717.182 2.722.232 3.015l.15.88c.737 4.323 2.94 7.528 6.613 9.616 3.232 1.712 6.824 2.23 10.78 1.555 6.444-1.097 11.81-3.897 16.093-8.398 2.226-2.415 4.054-5.29 5.483-8.625 1.43-3.335 2.284-7.497 2.565-12.484.282-4.985.584-13.39.908-25.207.13-4.546.21-9.933.243-16.16.032-6.226.096-11.72.188-16.488l.063-2.952-16.84 4.003c-.043 12.146-.177 22.196-.404 30.153-.075 3.105-.14 6.15-.195 9.14-.055 2.99-.13 5.865-.224 8.633-.094 2.77-.178 4.932-.252 6.49-.074 1.558-.133 3.096-.176 4.61-.044 1.517-.22 3.02-.533 4.503-.312 1.485-.803 2.813-1.47 3.982-.667 1.17-1.533 1.844-2.594 2.025-1.06.18-1.97-.06-2.722-.723-.754-.663-1.255-1.725-1.505-3.193-.25-1.464-.256-4.818-.02-10.062.08-1.748.23-5.505.454-11.275.063-2.725.157-5.718.28-8.982.122-3.262.283-7.626.483-13.09.148-4.04.342-9.147.582-15.307-5.244 9.012-11.477 17.395-18.57 25.002l-.02 1.407c-.066 4.915-.083 9.798-.046 14.655zM617.953 331.122c-2.234.606-4.378 1.18-6.434 1.72-2.057.538-4.148 1.103-6.27 1.69-2.124.59-3.98 1.093-5.565 1.514-.068 1.37-.198 6.368-.385 14.995-.065 3.62-.127 7.623-.188 11.976 7.093-7.607 13.326-15.99 18.57-25.002l.27-6.892zM667.386 402.998c-.25-11.192-.2-19.985.142-26.377l1.21-.205c3.587-.612 6.913-2.102 9.978-4.472 3.064-2.368 5.616-5.292 7.664-8.77 2.045-3.48 3.502-7.31 4.375-11.492.87-4.18.95-8.362.237-12.537-1.112-6.52-3.24-11.285-6.392-14.292-1.79-1.655-3.934-2.853-6.435-3.596-2.5-.742-5.766-.77-9.794-.084-4.028.687-9.865 2.927-17.51 6.718.352 19.32-.403 46.743-2.264 82.273l18.79-7.162zm.78-67.77c1.464-.248 2.94.235 4.43 1.452 1.488 1.217 2.47 3.216 2.943 6 .848 4.985.363 9.667-1.453 14.047-1.66 3.98-3.75 6.52-6.275 7.63.142-8.468.258-18.178.354-29.128zM697.697 400.15c2.154-.633 4.32-1.285 6.506-1.96 2.185-.672 4.098-1.263 5.748-1.77l1.752-16.925 9.778-1.667c.375 5.743.76 12.2 1.152 19.37 1.78-.604 3.756-1.28 5.93-2.028 2.17-.747 4.275-1.445 6.313-2.095 2.037-.647 4.124-1.342 6.258-2.085-2.173-16.744-4.464-35.053-6.87-54.927-1.244-9.968-2.155-18.634-2.732-26-6.867 2.604-16.994 5.537-30.382 8.8-.38 3.532-.825 7.434-1.34 11.708-.517 4.274-1.045 8.7-1.583 13.277-.54 4.58-1.09 9.197-1.654 13.855-.562 4.66-1.3 10.61-2.216 17.852-.914 7.244-2.024 16.106-3.33 26.58 2.297-.692 4.52-1.354 6.673-1.985zm17.813-71.975l1.738-.41.9 9.913c.488 6.854 1.107 14.25 1.856 22.19.09 1.418.173 2.668.244 3.748.07 1.082.143 1.84.22 2.282l-8.038 1.936 3.08-39.66zM753.474 390.582c7.38-2.688 14.915-4.69 22.606-6.002l3.424-.47c-.124-.28-.312-.833-.566-1.657-.252-.824-.68-2.107-1.277-3.855-.598-1.744-1.215-4.033-1.848-6.867-4.982.85-8.844 1.622-11.59 2.316-.083-2.7-.12-7.444-.106-14.232.013-6.787.965-25.197 2.86-55.23l-19.327 6.01c-.32 10.534-.65 23.522-.996 38.963-.348 15.442-.244 30.09.306 43.945 1.94-1.007 4.11-1.98 6.514-2.92zM785.423 377.67c4.43 6.108 12.177 8.217 23.237 6.33 9.448-1.61 17.06-6.035 22.836-13.28 2.687-3.246 4.625-6.8 5.815-10.662 1.19-3.86 1.454-7.73.792-11.615-1.123-6.594-4.625-12.104-10.504-16.532 2.036-1.324 3.77-2.864 5.206-4.618 4.4-5.575 6.053-11.59 4.954-18.037-.823-4.836-3.036-8.53-6.637-11.083-1.885-1.337-4.1-2.278-6.642-2.826-2.544-.546-5.646-.51-9.307.116-3.663.626-7.396 2.036-11.207 4.23-3.81 2.195-7.1 4.773-9.874 7.735-2.775 2.96-4.885 6.167-6.333 9.618-1.448 3.453-1.89 6.826-1.328 10.124.822 4.835 3.866 8.765 9.13 11.788-5.572 3.138-9.524 7.808-11.86 14.01-1.04 2.742-1.655 5.542-1.846 8.402-.192 2.86-.04 5.738.453 8.633.494 2.895 1.53 5.45 3.116 7.668zm20.197-58.636c.655-1.018 1.54-1.904 2.655-2.66 1.116-.754 2.606-1.29 4.475-1.61 1.868-.318 3.6-.198 5.205.357.807.316 1.508.78 2.104 1.396.592.616.978 1.436 1.152 2.46.176 1.028.02 2.223-.464 3.586-.483 1.365-1.19 2.636-2.12 3.81-.93 1.177-2.017 2.212-3.258 3.1-1.244.893-2.672 1.475-4.28 1.75-1.613.275-3.06-.138-4.34-1.24-1.28-1.1-2.1-2.713-2.463-4.84-.363-2.125.082-4.16 1.333-6.108zm-4.118 31.578c1.386-1.593 2.98-2.958 4.785-4.096 1.803-1.136 3.694-1.873 5.673-2.21 1.977-.338 3.902.125 5.776 1.39 1.872 1.263 3.1 3.6 3.68 7.007.582 3.408-.004 6.166-1.754 8.273-.997 1.226-2.377 2.31-4.14 3.25-1.76.942-4.234 1.684-7.42 2.227-3.186.544-5.653.228-7.396-.945-1.745-1.172-2.78-2.71-3.104-4.617-.55-3.22.75-6.647 3.9-10.278zM101.39 552.017V367.25l791.322-135.123v184.767l-791.32 135.123zm12.544-174.18v159.31l766.235-130.84V247L113.933 377.837z"/><polygon fill="#41fbd4" points="810,493.104 810,446.065 823,443.954 823,478.029 968.444,452.576 927.285,395.944 966.646,329.651 907,339.246 907,327.424 991.714,312.255 942.442,395.239 990.453,461.551"/><polygon fill="#41fbd4" points="185,294.329 185,341.369 173,343.48 173,309.405 27.496,334.857 68.626,391.489 28.809,457.782 88,448.187 88,460.009 3.726,475.178 53.218,392.194 4.877,325.882"/><path fill="#41fbd4" d="M399.64 572.676c1.17-.198 2.29-1.136 3.353-2.812 1.055-1.724 1.636-3.412 1.74-5.07l8.78 1.902c-1.27 5.278-3.367 9.662-6.29 13.148-2.606 3.097-5.5 4.916-8.685 5.46-2.998.51-5.664-.433-8-2.832-2.46-2.57-4.095-6.22-4.9-10.95-.807-4.733-.965-9.406-.474-14.022.49-4.615 1.565-8.86 3.218-12.733 1.653-3.873 3.85-7.152 6.6-9.84 2.746-2.684 5.97-4.343 9.67-4.973 2.387-.407 4.582.158 6.577 1.698 1.958 1.595 3.198 3.914 3.715 6.96l.155.913c.05.28.076.59.086.925l-8.982 4.135c-.762-1.074-1.528-1.548-2.3-1.415-.774.13-1.505.714-2.197 1.747-.692 1.034-1.33 2.324-1.908 3.868-.58 1.546-1.097 3.26-1.547 5.145s-.803 3.766-1.06 5.64c-.644 4.16-.758 7.445-.346 9.858.413 2.415 1.342 3.497 2.794 3.248zM418.01 581.91l.697-52.764 22.425-5.847c-.146 1.133-.25 2.223-.31 3.27-.063 1.047-.128 2.082-.195 3.107-.068 1.023-.106 1.923-.12 2.696-1.38.38-3.29.776-5.723 1.19l-4.847.828-.326 13.363c2.552-.58 4.69-1.04 6.416-1.383 1.724-.342 2.84-.58 3.35-.716.042 1.39.09 2.744.148 4.06.054 1.318.082 2.674.08 4.073-.51.135-1.3.306-2.37.512-1.075.208-2.193.435-3.355.68-1.165.247-2.468.518-3.91.81l-.197 13.702 10.18-3.472.697 8.342-22.64 7.55zM455.998 564.948c1.755-.444 4.225-.936 7.41-1.48.403 1.81.797 3.274 1.18 4.39.382 1.118.656 1.938.817 2.464.163.528.283.88.363 1.06l-2.192.3c-4.915.84-9.735 2.12-14.453 3.84-1.538.598-2.925 1.22-4.163 1.865-.353-8.86-.42-18.224-.196-28.096.222-9.87.432-18.176.635-24.91l12.355-3.844c-1.21 19.2-1.82 30.972-1.827 35.312-.008 4.342.016 7.375.07 9.1zM468.53 573.298l.7-52.765 22.423-5.847c-.144 1.134-.25 2.224-.31 3.27-.063 1.048-.128 2.083-.195 3.108-.066 1.023-.104 1.923-.117 2.695-1.38.38-3.29.777-5.725 1.192l-4.845.827-.326 13.36c2.55-.58 4.69-1.04 6.413-1.382 1.726-.342 2.84-.58 3.35-.716.042 1.39.092 2.744.148 4.06.055 1.318.082 2.674.08 4.073-.51.135-1.297.306-2.37.512-1.075.21-2.193.436-3.355.68-1.162.248-2.467.52-3.908.812l-.196 13.7 10.18-3.472.696 8.342-22.64 7.548zM524.154 545.52c.296 1.733.177 3.514-.355 5.34-.533 1.825-1.375 3.536-2.525 5.13-1.15 1.594-2.562 3.064-4.236 4.41-1.675 1.345-3.483 2.546-5.424 3.6-3.788 2.093-7.788 3.498-12.003 4.215-1.78.304-3.466.447-5.06.43.867-8.777 1.254-17.545 1.16-26.304-.096-8.756-.245-17.553-.448-26.39 6.324-2.475 11.57-4.07 15.737-4.78 4.918-.838 8.624.266 11.12 3.31.962 1.138 1.603 2.632 1.918 4.483.315 1.852.317 3.623.002 5.315-.315 1.693-.828 3.276-1.54 4.746-1.474 2.953-3.46 5.147-5.963 6.585 4.238 1.69 6.777 4.992 7.614 9.91zm-17.887 6.594c4.18-1.194 6.975-2.9 8.38-5.117.605-.97.822-1.972.646-3.004-.176-1.03-.535-1.8-1.08-2.31s-1.2-.892-1.967-1.147c-1.533-.51-3.12-.626-4.757-.347l-.634.107c-.187.033-.37.09-.55.166.012 1.204.012 2.265 0 3.182-.013.92-.018 1.8-.02 2.642 0 .844-.006 1.725-.02 2.642-.012.92-.012 1.98 0 3.184zm.217-20.792c5.63-2.308 8.282-4.424 7.954-6.346-.31-1.827-2.005-2.718-5.08-2.676-.775-.013-1.442.03-2.004.124l-.773.13c-.005.533-.005 1.172.003 1.918.006.746.005 1.518-.003 2.314s-.03 1.597-.062 2.397c-.034.802-.045 1.515-.034 2.14zM549.303 558.298c-5.626-11.238-8.652-17.69-9.08-19.352l-.865.437c-.01 2.22-.06 5.313-.155 9.282-.095 3.97-.157 7.14-.187 9.506l-11.146 5.01c.857-24.394.98-41.627.374-51.695 5.145-2.614 11.09-4.494 17.832-5.644 5.058-.86 8.354.384 9.89 3.74.465 1.03.834 2.34 1.105 3.933.272 1.592.237 3.37-.102 5.332-.342 1.963-.93 3.883-1.767 5.762-1.757 3.82-4.192 6.934-7.297 9.343 2.497 3.623 4.755 7.06 6.78 10.305 2.023 3.247 3.73 5.982 5.12 8.203l-10.5 5.84zm-6.372-41.652l-3.08.597-.365 11.85c1.84-.506 4.002-2.105 6.483-4.795 2.568-2.752 3.728-4.852 3.48-6.305-.23-1.36-1.653-1.912-4.26-1.662-.756.085-1.51.188-2.257.316zM569.713 526.544c-3.365-1.933-5.31-4.445-5.838-7.537-.358-2.11-.076-4.265.85-6.473.925-2.205 2.275-4.257 4.048-6.15 1.773-1.893 3.878-3.54 6.313-4.946 2.435-1.402 4.823-2.303 7.167-2.703 2.34-.4 4.323-.425 5.95-.074 1.626.35 3.04.953 4.248 1.807 2.303 1.633 3.716 3.995 4.243 7.087.703 4.122-.353 7.967-3.17 11.53-.916 1.123-2.024 2.106-3.326 2.955 3.758 2.828 5.997 6.35 6.716 10.568.424 2.484.253 4.958-.505 7.427-.762 2.468-2 4.74-3.718 6.817-3.693 4.632-8.56 7.46-14.6 8.49-7.073 1.207-12.024-.142-14.857-4.046-1.013-1.418-1.677-3.053-1.992-4.903s-.41-3.69-.29-5.52.516-3.617 1.182-5.37c1.492-3.967 4.02-6.952 7.58-8.96zm16.533 8.79c-.372-2.18-1.158-3.673-2.355-4.48-1.198-.81-2.428-1.107-3.693-.89-1.264.215-2.473.686-3.626 1.413-1.152.727-2.172 1.6-3.058 2.62-2.014 2.32-2.846 4.51-2.494 6.572.207 1.217.87 2.2 1.984 2.95 1.115.75 2.692.952 4.728.604 2.038-.347 3.62-.82 4.747-1.423 1.124-.6 2.008-1.293 2.644-2.077 1.12-1.35 1.497-3.112 1.126-5.29zm-1.785-16.836c.595-.752 1.048-1.564 1.358-2.436.307-.873.407-1.636.295-2.292-.11-.656-.358-1.18-.738-1.575-.38-.393-.83-.69-1.344-.892-1.024-.355-2.132-.43-3.326-.228-1.194.204-2.147.548-2.86 1.03-.714.484-1.28 1.05-1.7 1.7-.798 1.246-1.083 2.548-.852 3.906.23 1.36.757 2.39 1.576 3.095.82.705 1.743.97 2.773.794 1.03-.177 1.944-.55 2.74-1.12.79-.57 1.488-1.23 2.08-1.982zM601.356 550.58c.722-26.59.945-44.104.665-52.54 1.996-.727 4.02-1.446 6.066-2.155 2.05-.71 4.277-1.272 6.69-1.684 2.412-.41 4.588-.36 6.532.153 1.94.513 3.598 1.4 4.97 2.66 2.624 2.398 4.336 5.94 5.134 10.623.88 5.153.445 10.82-1.297 16.998-1.843 6.436-4.763 11.924-8.76 16.462-4.582 5.072-9.893 8.124-15.934 9.153-1.03.175-2.386.284-4.064.33zm11.09-10.858c2.918-2.668 5.193-7.563 6.823-14.687.914-3.964 1.413-7.255 1.5-9.872.083-2.62 0-4.653-.246-6.105-.247-1.45-.948-2.598-2.103-3.438-1.155-.84-2.786-1.08-4.892-.72-.11 4.164-.287 8.653-.526 13.466-.394 8.167-.578 15.286-.555 21.356zM643.03 514.043c-3.366-1.933-5.312-4.445-5.84-7.537-.357-2.11-.075-4.265.85-6.473.926-2.205 2.276-4.257 4.05-6.15 1.774-1.893 3.877-3.54 6.312-4.946 2.435-1.402 4.823-2.303 7.167-2.703 2.34-.4 4.322-.425 5.95-.074 1.625.35 3.04.952 4.247 1.806 2.302 1.633 3.715 3.995 4.244 7.087.702 4.122-.354 7.967-3.168 11.53-.918 1.123-2.027 2.106-3.328 2.955 3.76 2.83 5.997 6.352 6.716 10.57.424 2.483.253 4.957-.505 7.426-.762 2.468-2 4.74-3.718 6.817-3.693 4.633-8.56 7.462-14.6 8.492-7.073 1.206-12.024-.143-14.857-4.047-1.013-1.418-1.677-3.053-1.992-4.903s-.412-3.69-.29-5.52c.122-1.827.515-3.617 1.18-5.37 1.492-3.967 4.02-6.952 7.58-8.96zm16.532 8.79c-.372-2.18-1.158-3.673-2.355-4.48-1.2-.81-2.43-1.107-3.694-.89-1.264.215-2.473.686-3.626 1.413s-2.173 1.6-3.06 2.62c-2.013 2.32-2.845 4.51-2.493 6.572.207 1.218.87 2.202 1.984 2.95 1.115.752 2.692.953 4.728.605 2.038-.347 3.62-.82 4.747-1.423 1.124-.602 2.008-1.294 2.644-2.078 1.12-1.348 1.495-3.112 1.125-5.29zm-1.785-16.836c.594-.752 1.047-1.564 1.357-2.436.307-.872.407-1.635.295-2.29-.112-.657-.36-1.18-.74-1.576-.38-.393-.827-.69-1.342-.89-1.026-.356-2.135-.432-3.328-.228-1.194.203-2.147.547-2.86 1.03-.714.483-1.28 1.05-1.7 1.7-.8 1.245-1.084 2.547-.853 3.905.23 1.36.757 2.39 1.576 3.095.82.705 1.743.97 2.773.794 1.03-.177 1.943-.55 2.738-1.12.793-.57 1.49-1.23 2.083-1.983zM351.43 584.034c-2.79 2.95-5.432 4.688-7.922 5.216-2.755.584-5.04.224-6.858-1.08-1.638-1.165-2.635-2.822-2.99-4.97-.357-2.15-.23-4.266.382-6.353.61-2.086 1.592-4.117 2.945-6.095 2.897-4.44 6.71-7.583 11.443-9.432.877-.363 1.92-.673 3.127-.93 3.17-.67 6.4-.378 9.695.88-.23 2.852-.42 5.717-.568 8.594l-.433 8.698c5.145-4.783 7.272-9.86 6.382-15.23-.627-3.78-2.552-6.44-5.775-7.98-2.887-1.39-6.443-1.637-10.668-.74-2.907.616-5.715 1.7-8.425 3.254-2.71 1.553-5.073 3.5-7.088 5.84-2.014 2.34-3.514 5.015-4.5 8.026-.985 3.01-1.206 6.15-.665 9.414.54 3.266 1.554 6.32 3.042 9.162l-6.037 9.887c-3.1-5.035-5.09-10.217-5.974-15.545-1.103-6.66-.245-13.024 2.577-19.093 2.544-5.386 6.444-10.016 11.7-13.89 4.937-3.67 10.217-6.103 15.84-7.295 6.677-1.417 12.33-.302 16.957 3.342 2.1 1.6 3.808 3.595 5.122 5.985 1.312 2.39 2.192 4.927 2.638 7.612.445 2.686.43 5.424-.045 8.216s-1.43 5.397-2.865 7.813c-1.436 2.42-3.39 4.534-5.862 6.348-2.473 1.814-5.482 3.097-9.03 3.85-2.49.528-4.276.35-5.36-.532-.397-.27-.64-.686-.734-1.245-.092-.56-.11-1.136-.05-1.726zm1.583-17.682c-.633-.042-1.392.028-2.278.217-.887.187-1.93.675-3.126 1.462-1.2.788-2.232 1.74-3.1 2.86-2.036 2.566-2.83 5.203-2.38 7.91.17 1.03.582 1.81 1.236 2.34.653.528 1.584.664 2.792.408 2.037-.432 3.913-1.364 5.63-2.795l1.225-12.403zM573.613 193.554c-21.322-18.794-48.82-29.145-77.425-29.146-11.25-.008-20.4-8.993-20.4-20.03 0-5.073 1.81-9.704 5.24-13.406l8.178-7.848-.115-.12c2.326-2.306 4.692-4.664 7.09-7.062 2.396 2.394 4.755 4.744 7.07 7.037l-.175.18 8.264 7.812c3.427 3.7 5.24 8.332 5.24 13.406 0 .645-.55 4.58-.863 6.822 2.796.222 8.147.822 14.94 2.378.466-2.598 1.436-7.446 1.436-9.2 0-7.85-2.62-15.368-7.432-21.486l.185-.192-5.307-5.227c-5.64-5.555-11.632-11.52-17.807-17.728l-5.553-5.583-5.55 5.585c-6.14 6.178-12.13 12.142-17.8 17.727l-1.826 1.842-.905.857-.308.308c-.24.255-.476.512-.708.773l-1.474 1.485.122.128c-4.826 6.123-7.453 13.65-7.453 21.514 0 19.423 16.106 35.236 35.904 35.25l.004-7.61v7.61c24.774 0 48.59 8.967 67.063 25.248 19.17 16.898 30.917 40.34 33.018 65.263l15.337-2.714c-2.76-28.23-16.24-54.702-37.99-73.872zM380.205 278.197c0 10.198 1.416 20.07 3.997 29.48l15.69-2.777c-2.523-8.498-3.975-17.45-4.173-26.703-.51-23.634 8.43-41.494 16.724-55.894-3.643-3.92-7.093-8.304-10.216-13.203-13.585 21.078-22.023 47.892-22.023 69.097zM588.384 188.347c3.68-11.32 6.954-33.287 6.954-43.968 0-26.16-10.977-51.61-30.118-69.838-21.01-20.67-39.705-39.978-40.49-40.788L496.137 4.192l-28.577 29.6c-1.997 2.067-20.095 20.757-40.416 40.75-19.14 18.23-30.116 43.68-30.116 69.836 0 21.72 7.185 42.295 20.778 59.5 14.486 18.332 34.562 30.69 56.967 35.52 6.94 1.497 14.1 2.28 21.392 2.282h.02c20.52 0 37.217 16.38 37.217 36.516 0 1.045-.064 2.075-.154 3.098l14.375-2.545 1.292-.554c0-28.528-23.655-51.736-52.73-51.736v7.61h-.01l-.007-7.61c-25.995-.01-50.087-11.64-66.1-31.908-11.466-14.51-17.527-31.86-17.527-50.174 0-22.085 9.277-43.572 25.45-58.954l.094-.09c20.472-20.142 38.718-38.986 40.753-41.09l17.31-17.93 17.33 17.917c.793.82 19.64 20.284 40.804 41.104l.095.09c16.174 15.382 25.45 36.87 25.45 58.955 0 8.01-1.81 20.485-5.482 29.883 4.925 3.973 9.673 8.634 14.04 14.084zM443.452 278.197c.243 6.445 1.6 12.61 3.872 18.307l15.34-2.715c-2.3-4.734-3.632-10.013-3.698-15.593-.152-12.95 4.02-19.82 7.49-24.954-3.41-.813-8.925-2.355-15.528-5.015-4.53 8.59-7.88 19.276-7.476 29.97zM437.45 241.772c.616.346 1.227.68 1.838 1.007l-1.64-1.27-.2.262z"/></svg>