<svg xmlns="http://www.w3.org/2000/svg" viewBox="0 0 58 96" width="61" height="46" enable-background="new 0 0 58 96"><g fill="#41fbd4"><path d="M48.363 46.877c-5.33-4.653-12.207-7.215-19.36-7.215-2.812-.002-5.1-2.226-5.1-4.958 0-1.256.453-2.403 1.31-3.32l2.045-1.942-.03-.03c.582-.57 1.174-1.154 1.774-1.748.6.593 1.19 1.174 1.767 1.742l-.044.045 2.066 1.935c.857.916 1.31 2.063 1.31 3.32 0 .21-.018.418-.045.625.956.06 2.286.217 3.9.595.024-.304.025-.668.025-1.22 0-1.944-.655-3.806-1.858-5.32l.046-.047-1.327-1.294c-1.41-1.375-2.91-2.852-4.453-4.39L29 22.275l-1.387 1.382c-1.535 1.53-3.033 3.006-4.45 4.388l-.457.456-.227.212-.078.076c-.06.063-.12.127-.177.19l-.368.37.03.03c-1.206 1.517-1.862 3.38-1.862 5.327 0 4.808 4.026 8.723 8.976 8.726v-1.883 1.884c7 0 12.152 2.22 16.77 6.25 5.307 4.633 8.352 11.248 8.352 18.152 0 13.455-11.268 24.4-25.12 24.4-13.85 0-25.12-10.945-25.12-24.4 0-4.283 1.137-8.397 3.297-12.058-1.115-1.095-2.013-2.134-2.684-2.978C1.554 57.294.004 62.45.004 67.832.004 83.362 13.014 96 29.002 96s29-12.637 29-28.17c0-7.97-3.514-15.607-9.64-20.953zM23.65 58.33c1.734.37 3.525.67 5.348.67h.005c5.13 0 9.306 3.95 9.306 8.935 0 4.984-4.176 8.987-9.307 8.987-5.13 0-9.306-4.08-9.306-9.066 0-1.65.465-3.267 1.34-4.67-1.36-.214-2.648-.556-3.865-.983-.884 1.747-1.354 3.665-1.354 5.63 0 7.062 5.915 12.806 13.185 12.806 7.27 0 13.184-5.747 13.184-12.81C42.187 60.77 37 55.025 29 55.025V57l-.002-1.93c-6.5-.003-12.524-2.905-16.528-7.922-2.867-3.592-4.382-7.9-4.382-12.432 0-5.467 2.32-10.792 6.363-14.6l.024-.025c5.12-4.985 9.68-9.65 10.19-10.172l4.328-4.44 4.333 4.435c.198.203 4.91 5.02 10.202 10.175l.023.022c4.044 3.808 6.364 9.127 6.364 14.594 0 2.12-.34 4.186-1 6.172 1.1.746 2.226 1.59 3.368 2.55.937-2.764 1.51-6.038 1.51-8.722 0-6.475-2.744-12.776-7.53-17.288C41.008 12.3 36.334 7.52 36.138 7.32L28.99 0l-7.144 7.328c-.5.512-5.025 5.14-10.106 10.088-4.786 4.512-7.53 10.813-7.53 17.288 0 5.377 1.797 10.523 5.195 14.782 3.622 4.538 8.642 7.65 14.244 8.845z"/></g></svg>