<?xml version="1.0" encoding="iso-8859-1"?>
<!-- Generator: Adobe Illustrator 19.1.0, SVG Export Plug-In . SVG Version: 6.00 Build 0)  -->
<!DOCTYPE svg PUBLIC "-//W3C//DTD SVG 1.1//EN" "http://www.w3.org/Graphics/SVG/1.1/DTD/svg11.dtd">
<svg version="1.1" xmlns="http://www.w3.org/2000/svg" xmlns:xlink="http://www.w3.org/1999/xlink" x="0px" y="0px"
	 viewBox="0 0 84 95.259" style="enable-background:new 0 0 84 95.259;" xml:space="preserve" width="21" height="24">
<g id="drupal">
	<path fill="#c3c7c9" id="path-1" d="M51.612,12.211c-5.552-2.225-9.246-7.023-13.318-12.953C36.266,8.141,36.628,9.987,23.67,16.084
		C9.81,22.574,0,36.615,0,53.272c0,23.121,18.69,41.986,42,41.986c23.129,0,42-18.684,42-41.986
		C83.806,33.663,71.048,19.789,51.612,12.211z M54.019,86.743c-0.181,0.18-4.253,2.767-12.032,2.767
		c-7.778,0-11.837-2.767-11.837-2.767c-0.361-0.361-0.56-0.74-0.181-1.3c0.361-0.361,0.74-0.559,1.3-0.18
		c0,0,3.693,2.406,10.731,2.406c7.219,0,10.912-2.406,11.092-2.406c0.362-0.361,1.106-0.181,1.3,0.18
		C54.763,85.637,54.578,86.382,54.019,86.743z M35.526,78.786c0.56-0.56,2.226-2.406,3.332-3.146c0.74-0.361,2.225-0.56,3.512-0.361
		c1.106,0,2.587,0.18,3.513,0.361c1.106,0.559,2.768,2.406,3.332,3.146c0.361,0.361,0.361,1.106-0.181,1.484
		c-0.361,0.361-1.106,0.361-1.485-0.18c-0.74-1.106-2.027-2.406-2.406-2.406c-0.362-0.361-1.485-0.361-2.768-0.361
		c-1.106,0-2.406,0.18-2.406,0.361c-0.56,0.18-1.666,1.484-2.407,2.406c-0.361,0.361-0.74,0.559-1.485,0.18
		C34.962,79.72,34.962,78.98,35.526,78.786z M61.422,79.16c-6.099,0-14.984-8.142-19.418-8.503l0,0
		c-4.433,0.181-13.137,8.503-19.417,8.503c-6.28,0-9.991-6.097-9.991-9.987c0-3.89,3.891-10.168,10.172-10.168
		c6.099,0,14.804,9.062,19.418,9.062c4.615,0,13.318-9.062,19.418-9.062s10.172,6.097,10.172,10.168
		C71.788,73.063,67.9,79.16,61.422,79.16z"/>
</g>
<g id="Layer_1">
</g>
</svg>
