<?xml version="1.0" encoding="UTF-8" standalone="no"?>
<!-- Generator: Adobe Illustrator 19.1.0, SVG Export Plug-In . SVG Version: 6.00 Build 0)  -->

<svg
   xmlns:dc="http://purl.org/dc/elements/1.1/"
   xmlns:cc="http://creativecommons.org/ns#"
   xmlns:rdf="http://www.w3.org/1999/02/22-rdf-syntax-ns#"
   xmlns:svg="http://www.w3.org/2000/svg"
   xmlns="http://www.w3.org/2000/svg"
   xmlns:sodipodi="http://sodipodi.sourceforge.net/DTD/sodipodi-0.dtd"
   xmlns:inkscape="http://www.inkscape.org/namespaces/inkscape"
   version="1.1"
   x="0px"
   y="0px"
   viewBox="0 0 85 96"
   width="52"
   height="39"
   style="enable-background:new 0 0 85 96;"
   xml:space="preserve"
   id="svg2"
   inkscape:version="0.91 r13725"
   sodipodi:docname="drupal8.svg"><metadata
     id="metadata22"><rdf:RDF><cc:Work
         rdf:about=""><dc:format>image/svg+xml</dc:format><dc:type
           rdf:resource="http://purl.org/dc/dcmitype/StillImage" /><dc:title></dc:title></cc:Work></rdf:RDF></metadata><defs
     id="defs20" /><sodipodi:namedview
     pagecolor="#ffffff"
     bordercolor="#666666"
     borderopacity="1"
     objecttolerance="10"
     gridtolerance="10"
     guidetolerance="10"
     inkscape:pageopacity="0"
     inkscape:pageshadow="2"
     inkscape:window-width="640"
     inkscape:window-height="480"
     id="namedview18"
     showgrid="false"
     inkscape:zoom="2.4583333"
     inkscape:cx="42.5"
     inkscape:cy="48"
     inkscape:window-x="0"
     inkscape:window-y="0"
     inkscape:window-maximized="0"
     inkscape:current-layer="g5" /><g
     id="drupal8"><g
       id="g5"><path
         style="fill:#FFFFFF;"
         d="M54.592,96c0.859-0.174,1.202-0.204,1.518-0.313c8.746-3.022,15.976-8.2,21.431-15.669    c8.792-12.039,10.214-26.31,2.112-38.466c-1.991-2.987-4.319-5.749-6.492-8.615c0.926,11.665-3.91,19.298-14.364,23.539    C70.288,70.007,66.806,86.587,54.592,96z M55.198,74.608c0.319-8.239-6.299-15.534-15.202-15.456    c-8.781,0.077-15.131,6.575-15.252,15.239c-0.118,8.456,6.516,15.461,15.247,15.483C48.979,89.897,55.524,82.357,55.198,74.608z     M41.666,37.266c-0.571,5.145,3.91,11.803,11.549,11.87c6.999,0.062,11.746-5.83,11.799-11.758    c0.048-5.319-4.121-11.785-11.688-11.845C45.921,25.474,41.187,31.961,41.666,37.266z"
         id="path7" /><path
         d="M38.269,0c4.759,4.785,9.506,9.581,14.284,14.346c1.077,1.074,2.261,2.039,3.866,3.476    c-8.799-0.785-15.429,2.077-19.806,9.125c-4.412,7.105-3.978,14.34,0.445,21.714c-9.877,1.775-17.225,6.9-20.995,16.342    c-3.744,9.376-1.924,18.041,3.684,26.333c-1.614-1.146-3.314-2.188-4.827-3.456C6.727,81.012,1.425,72.312,0.299,61.665    c-1.26-11.918,1.291-23.009,10.87-31.114c4.009-3.392,8.91-5.754,13.503-8.416c3.773-2.187,7.773-4.063,10.208-7.907    C37.647,9.859,38.558,5.098,37.422,0C37.705,0,37.987,0,38.269,0z"
         id="path9"
         style="fill:#ffffff" /><path
         d="M54.592,96c12.215-9.413,15.696-25.993,4.205-39.525c10.454-4.241,15.29-11.874,14.364-23.539    c2.173,2.865,4.501,5.627,6.492,8.615c8.101,12.157,6.68,26.428-2.112,38.466c-5.455,7.469-12.685,12.647-21.431,15.669    C55.794,95.796,55.451,95.826,54.592,96z"
         id="path11"
         style="fill:#ffffff" /><path
         d="M55.198,74.608c0.326,7.748-6.219,15.289-15.207,15.266c-8.731-0.022-15.364-7.027-15.247-15.483    c0.121-8.665,6.471-15.162,15.252-15.239C48.899,59.074,55.517,66.369,55.198,74.608z"
         id="path13"
         style="fill:#ffffff" /><path
         d="M41.666,37.266c-0.48-5.305,4.255-11.792,11.66-11.733c7.566,0.06,11.736,6.526,11.688,11.845    c-0.053,5.927-4.8,11.819-11.799,11.758C45.577,49.069,41.096,42.411,41.666,37.266z"
         id="path15"
         style="fill:#ffffff" /></g></g><g
     id="Layer_1" /></svg>
