<?xml version="1.0" encoding="iso-8859-1"?>
<!-- Generator: Adobe Illustrator 19.1.0, SVG Export Plug-In . SVG Version: 6.00 Build 0)  -->
<!DOCTYPE svg PUBLIC "-//W3C//DTD SVG 1.1//EN" "http://www.w3.org/Graphics/SVG/1.1/DTD/svg11.dtd">
<svg version="1.1" xmlns="http://www.w3.org/2000/svg" xmlns:xlink="http://www.w3.org/1999/xlink" x="0px" y="0px"
	 viewBox="0 0 97 81.009" style="enable-background:new 0 0 97 81.009;" xml:space="preserve" width="26" height="22">
<g id="twitter">
	<path fill="#c3c7c9" id="path-1_1_" d="M97,9.591c-3.57,1.627-7.401,2.723-11.431,3.216c4.11-2.524,7.265-6.531,8.749-11.311
		c-3.843,2.343-8.103,4.045-12.636,4.961C78.05,2.48,72.883,0,67.152,0c-10.99,0-19.894,9.161-19.894,20.447
		c0,1.602,0.174,3.166,0.515,4.668C31.232,24.255,16.566,16.11,6.749,3.752c-1.708,3.016-2.695,6.531-2.695,10.276
		c0,7.092,3.514,13.349,8.854,17.019c-3.26-0.112-6.327-1.028-9.01-2.561c-0.006,0.093-0.006,0.174-0.006,0.262
		c0,9.909,6.861,18.179,15.964,20.054c-1.67,0.467-3.427,0.723-5.241,0.723c-1.285,0-2.527-0.137-3.744-0.368
		c2.527,8.12,9.879,14.034,18.59,14.19c-6.811,5.49-15.393,8.762-24.719,8.762c-1.608,0-3.192-0.1-4.744-0.28
		c8.805,5.796,19.267,9.18,30.506,9.18c36.603,0,56.622-31.153,56.622-58.181c0-0.891-0.019-1.776-0.056-2.655
		C90.958,17.294,94.336,13.685,97,9.591z"/>
</g>
<g id="Layer_1">
</g>
</svg>
