<svg xmlns="http://www.w3.org/2000/svg" viewBox="0 0 85 96" width="52" height="39" enable-background="new 0 0 85 96"><g fill="#fff"><path d="M54.592 96c.86-.174 1.202-.204 1.518-.313 8.746-3.022 15.976-8.2 21.43-15.67 8.793-12.038 10.215-26.31 2.113-38.465-1.99-2.987-4.32-5.75-6.492-8.615.927 11.665-3.91 19.298-14.363 23.54 11.49 13.53 8.01 30.11-4.205 39.523zm.606-21.392c.32-8.24-6.3-15.534-15.202-15.456-8.78.077-15.13 6.575-15.252 15.24-.118 8.455 6.516 15.46 15.247 15.482 8.99.023 15.534-7.517 15.208-15.266zM41.666 37.266c-.57 5.145 3.91 11.803 11.55 11.87 6.998.062 11.745-5.83 11.798-11.758.048-5.32-4.12-11.785-11.688-11.845-7.405-.06-12.14 6.428-11.66 11.733z"/><path d="M38.27 0c4.758 4.785 9.505 9.58 14.283 14.346 1.077 1.074 2.26 2.04 3.866 3.476-8.8-.785-15.43 2.077-19.807 9.125-4.412 7.105-3.978 14.34.445 21.714-9.877 1.776-17.225 6.9-20.995 16.343-3.744 9.376-1.924 18.04 3.684 26.333-1.614-1.146-3.314-2.188-4.827-3.456C6.727 81.012 1.425 72.312.3 61.665-.96 49.747 1.59 38.655 11.17 30.55c4.008-3.39 8.91-5.753 13.502-8.415 3.773-2.187 7.773-4.063 10.208-7.907 2.767-4.37 3.678-9.13 2.542-14.228h.847z"/><path d="M54.592 96c12.215-9.413 15.696-25.993 4.205-39.525 10.454-4.24 15.29-11.874 14.364-23.54 2.174 2.866 4.502 5.628 6.493 8.616 8.1 12.158 6.68 26.43-2.112 38.467-5.454 7.47-12.684 12.647-21.43 15.67-.316.11-.66.14-1.518.313z"/><path d="M55.198 74.608c.326 7.748-6.22 15.29-15.207 15.266-8.73-.022-15.363-7.027-15.246-15.483.12-8.664 6.47-15.16 15.252-15.238 8.903-.078 15.52 7.217 15.202 15.456z"/><path d="M41.666 37.266c-.48-5.305 4.255-11.792 11.66-11.733 7.566.06 11.736 6.526 11.688 11.845-.053 5.927-4.8 11.82-11.8 11.758-7.637-.067-12.118-6.725-11.548-11.87z"/></g></svg>