<svg xmlns="http://www.w3.org/2000/svg" viewBox="0 0 97 81.009" width="26" height="22" enable-background="new 0 0 97 81.009"><path fill="#c3c7c9" d="M97 9.59c-3.57 1.628-7.4 2.724-11.43 3.217 4.11-2.524 7.264-6.53 8.748-11.31-3.843 2.342-8.103 4.044-12.636 4.96C78.05 2.48 72.882 0 67.152 0c-10.99 0-19.894 9.16-19.894 20.447 0 1.602.174 3.166.515 4.668-16.54-.86-31.207-9.005-41.024-21.363-1.71 3.016-2.696 6.53-2.696 10.276 0 7.092 3.514 13.35 8.854 17.02-3.26-.113-6.327-1.03-9.01-2.562-.006.093-.006.174-.006.262 0 9.91 6.86 18.18 15.964 20.054-1.67.467-3.427.723-5.24.723-1.286 0-2.528-.137-3.745-.368 2.528 8.12 9.88 14.034 18.59 14.19-6.81 5.49-15.392 8.762-24.718 8.762-1.608 0-3.192-.1-4.744-.28 8.805 5.795 19.267 9.18 30.506 9.18 36.603 0 56.622-31.154 56.622-58.182 0-.89-.02-1.776-.056-2.655 3.888-2.88 7.266-6.488 9.93-10.582z"/></svg>