<svg xmlns="http://www.w3.org/2000/svg" viewBox="0 0 84 95.259" width="21" height="24" enable-background="new 0 0 84 95.259"><path fill="#0073ba" d="M51.612 12.21C46.06 9.987 42.366 5.19 38.294-.74 36.266 8.14 36.628 9.988 23.67 16.084 9.81 22.574 0 36.614 0 53.272c0 23.12 18.69 41.986 42 41.986 23.13 0 42-18.684 42-41.986-.194-19.61-12.952-33.483-32.388-41.06zm2.407 74.533c-.182.18-4.254 2.767-12.033 2.767-7.778 0-11.837-2.767-11.837-2.767-.36-.36-.56-.74-.18-1.3.36-.36.74-.56 1.3-.18 0 0 3.692 2.406 10.73 2.406 7.22 0 10.912-2.407 11.092-2.407.362-.36 1.106-.18 1.3.18.37.194.186.94-.373 1.3zm-18.494-7.957c.56-.56 2.226-2.406 3.332-3.146.74-.36 2.225-.56 3.512-.36 1.106 0 2.587.18 3.513.36 1.106.56 2.768 2.406 3.332 3.146.36.36.36 1.106-.18 1.484-.362.36-1.107.36-1.486-.18-.74-1.106-2.028-2.406-2.407-2.406-.362-.36-1.485-.36-2.768-.36-1.106 0-2.406.18-2.406.36-.56.18-1.667 1.484-2.408 2.406-.36.36-.74.56-1.485.18-1.115-.55-1.115-1.29-.55-1.484zm25.896.374c-6.1 0-14.984-8.142-19.418-8.503-4.433.18-13.137 8.503-19.417 8.503-6.28 0-9.99-6.097-9.99-9.987 0-3.89 3.89-10.168 10.17-10.168 6.1 0 14.805 9.062 19.42 9.062 4.614 0 13.317-9.062 19.417-9.062s10.172 6.097 10.172 10.168c.012 3.89-3.876 9.987-10.354 9.987z"/></svg>