<svg enable-background="new 0 0 64 64" height="18" viewBox="0 0 64 64" width="18" xmlns="http://www.w3.org/2000/svg"><path fill="#333" d="M54.227 12.61c-.338-.335-.736-.504-1.196-.504-.228 0-.71.188-1.445.56-.735.37-1.515.785-2.336 1.247-.824.46-1.798.875-2.922 1.247-1.123.37-2.163.56-3.12.56-.884 0-1.664-.17-2.336-.506-2.23-1.044-4.168-1.823-5.814-2.337-1.646-.513-3.416-.77-5.31-.77-3.273 0-7 1.063-11.178 3.187-.862.43-1.48.763-1.88 1.007l-.397-2.91c.897-.78 1.476-1.914 1.476-3.195 0-2.347-1.903-4.25-4.25-4.25s-4.25 1.903-4.25 4.25c0 1.53.82 2.862 2.033 3.61l5.74 42.09c.17 1.253 1.243 2.162 2.474 2.162.112 0 .226-.007.34-.022 1.37-.188 2.327-1.447 2.14-2.815L19.69 38.303c4.186-2.077 7.807-3.124 10.853-3.124 1.293 0 2.554.192 3.783.582 1.23.39 2.253.815 3.067 1.274.814.46 1.775.886 2.88 1.274 1.107.39 2.2.585 3.28.585 2.725 0 5.99-1.027 9.795-3.08.478-.248.828-.492 1.05-.73.22-.24.33-.58.33-1.022V13.806c0-.46-.166-.858-.5-1.195z"/></svg>