<svg xmlns="http://www.w3.org/2000/svg" viewBox="0 0 500 182.594" width="260" height="95" enable-background="new 0 0 500 182.594"><path fill="#675ff2" d="M50.924 167.12V77.59L433.776 12.12v89.527L50.924 167.12zm6.07-84.4v77.192l370.714-63.396v-77.19L56.993 82.72z"/><polygon fill="#675ff2" points="394,138.573 394,115.78 400,114.757 400,131.268 470.392,118.935 450.491,91.495 469.696,59.373 441,64.022 441,58.294 481.831,50.944 457.914,91.153 481.224,123.284"/><polygon fill="#675ff2" points="91,42.258 91,65.051 85,66.074 85,49.563 14.888,61.896 34.929,89.336 16.014,121.458 45,116.809 45,122.537 3.95,129.887 27.756,89.678 4.111,57.547"/><path fill="#675ff2" d="M206.255 107.712c.823-.147 1.605-.814 2.345-2 .734-1.22 1.133-2.415 1.198-3.583l6.19 1.294c-.866 3.728-2.32 6.83-4.36 9.302-1.817 2.196-3.846 3.493-6.084 3.892-2.107.376-3.99-.275-5.646-1.954-1.746-1.798-2.915-4.363-3.506-7.696-.59-3.33-.726-6.625-.404-9.882.322-3.255 1.055-6.254 2.2-8.993 1.143-2.74 2.674-5.062 4.595-6.97 1.92-1.908 4.18-3.094 6.78-3.557 1.68-.3 3.226.09 4.64 1.164 1.386 1.114 2.27 2.743 2.65 4.887l.115.643c.035.198.056.416.065.652l-6.3 2.96c-.542-.753-1.085-1.082-1.628-.985-.543.097-1.056.512-1.537 1.244-.48.733-.923 1.646-1.323 2.738-.4 1.092-.755 2.304-1.062 3.635-.307 1.33-.547 2.66-.72 3.982-.43 2.935-.493 5.252-.19 6.95.3 1.7.962 2.46 1.982 2.277zM219.21 114.132l.22-37.2 15.756-4.238c-.096.8-.163 1.57-.202 2.307l-.12 2.192c-.042.722-.065 1.356-.07 1.902-.97.275-2.31.565-4.023.87l-3.406.607-.16 9.422c1.792-.422 3.295-.757 4.507-1.008 1.213-.25 1.997-.423 2.354-.52.038.98.08 1.933.126 2.86.045.928.07 1.885.077 2.87-.357.1-.912.223-1.666.374-.754.152-1.54.318-2.357.497-.817.18-1.734.378-2.748.592l-.068 9.66 7.148-2.5.534 5.878-15.9 5.437zM245.862 101.98c1.233-.322 2.97-.682 5.21-1.08.293 1.274.578 2.303.853 3.088.275.785.472 1.363.588 1.733.117.372.203.62.26.746l-1.54.224c-3.457.616-6.842 1.543-10.154 2.78-1.08.43-2.054.876-2.923 1.337-.293-6.243-.387-12.845-.28-19.806.104-6.96.21-12.815.32-17.565l8.677-2.772c-.754 13.542-1.124 21.843-1.106 24.903.016 3.06.048 5.198.094 6.414zM254.733 107.8l.222-37.2 15.755-4.238c-.096.8-.163 1.57-.202 2.308l-.12 2.19c-.043.723-.066 1.357-.07 1.902-.97.275-2.313.565-4.024.87l-3.408.608-.16 9.42c1.792-.42 3.295-.756 4.507-1.007 1.212-.25 1.996-.423 2.353-.52.038.98.08 1.933.126 2.86.045.928.07 1.885.077 2.87-.358.098-.913.223-1.667.374-.755.152-1.54.318-2.357.497-.817.18-1.734.378-2.748.592l-.068 9.66 7.148-2.5.534 5.878-15.9 5.437zM293.724 87.937c.217 1.22.142 2.476-.223 3.765-.365 1.29-.948 2.5-1.75 3.63-.8 1.13-1.787 2.174-2.958 3.13-1.172.958-2.438 1.813-3.8 2.566-2.655 1.495-5.464 2.506-8.427 3.034-1.252.223-2.438.332-3.56.328.566-6.192.793-12.374.682-18.55-.11-6.172-.26-12.373-.45-18.602 4.44-1.778 8.124-2.928 11.054-3.45 3.458-.617 6.072.142 7.844 2.277.684.797 1.143 1.847 1.374 3.15.23 1.303.24 2.552.028 3.747-.213 1.195-.566 2.313-1.06 3.353-1.022 2.09-2.41 3.646-4.163 4.673 2.992 1.17 4.796 3.485 5.41 6.95zm-12.558 4.74c2.937-.863 4.895-2.08 5.873-3.65.42-.688.567-1.395.438-2.12-.13-.727-.387-1.267-.772-1.624-.387-.357-.85-.623-1.39-.8-1.08-.35-2.2-.424-3.35-.218l-.446.08c-.132.022-.26.063-.386.12.015.847.02 1.595.016 2.242-.004.648-.004 1.27 0 1.863.004.596.003 1.217 0 1.863-.005.648 0 1.396.016 2.244zm.047-14.66c3.95-1.656 5.807-3.16 5.567-4.513-.23-1.287-1.426-1.907-3.59-1.86-.546-.006-1.015.027-1.41.097l-.543.098c-.002.376.002.825.01 1.35.01.527.013 1.07.01 1.632-.002.562-.013 1.126-.03 1.69-.02.565-.025 1.068-.014 1.508zM311.508 96.814c-4.13-8.52-6.35-13.38-6.665-14.585l-.607.312c-.01 6.263 0 11.01.03 14.236l-7.82 3.59c.48-17.203.48-29.352 0-36.448 3.61-1.868 7.784-3.225 12.525-4.07 3.557-.634 5.883.228 6.98 2.584.333.724.6 1.647.798 2.767.2 1.123.184 2.376-.046 3.76-.23 1.387-.634 2.743-1.214 4.07-1.22 2.702-2.916 4.91-5.09 6.625 1.776 2.542 3.384 4.953 4.825 7.23 1.44 2.28 2.656 4.198 3.646 5.757l-7.362 4.172zm-4.698-29.33l-2.164.436-.198 8.356c1.293-.366 2.806-1.503 4.54-3.412 1.793-1.953 2.6-3.44 2.417-4.464-.17-.956-1.172-1.34-3.006-1.148-.534.06-1.064.138-1.59.23zM325.733 74.32c-2.38-1.345-3.76-3.107-4.148-5.284-.263-1.484-.075-3.007.565-4.567.64-1.56 1.58-3.014 2.818-4.358 1.24-1.344 2.712-2.516 4.42-3.52 1.706-1 3.382-1.648 5.03-1.94 1.645-.294 3.04-.322 4.188-.084 1.146.238 2.146.656 3 1.252 1.628 1.14 2.635 2.797 3.022 4.974.515 2.903-.208 5.62-2.17 8.146-.64.796-1.417 1.495-2.328 2.1 2.66 1.975 4.254 4.447 4.78 7.416.312 1.75.205 3.495-.317 5.238-.523 1.745-1.384 3.353-2.582 4.825-2.575 3.283-5.986 5.303-10.233 6.06-4.972.886-8.465-.04-10.48-2.777-.72-.995-1.195-2.143-1.426-3.447-.23-1.302-.308-2.6-.23-3.89.076-1.29.343-2.553.803-3.792 1.03-2.804 2.793-4.92 5.29-6.354zm11.682 6.112c-.272-1.534-.833-2.583-1.68-3.147-.846-.564-1.714-.766-2.603-.607-.89.158-1.738.497-2.546 1.015-.808.52-1.522 1.14-2.14 1.86-1.406 1.648-1.98 3.196-1.723 4.647.152.858.623 1.548 1.412 2.07.788.524 1.9.658 3.332.403 1.432-.256 2.543-.598 3.333-1.028.79-.43 1.407-.922 1.852-1.478.78-.957 1.036-2.202.763-3.735zm-1.34-11.86c.414-.533.727-1.108.94-1.724.214-.616.28-1.155.198-1.618-.082-.462-.258-.83-.528-1.106-.27-.275-.587-.482-.95-.62-.725-.247-1.505-.295-2.345-.145-.84.15-1.51.395-2.008.74-.5.344-.895.746-1.187 1.207-.556.883-.75 1.802-.58 2.758.17.957.545 1.682 1.125 2.173.58.493 1.23.674 1.956.545.724-.13 1.364-.396 1.92-.802.557-.405 1.043-.875 1.458-1.408zM348.112 91.108c.373-18.75.44-31.097.2-37.044 1.4-.522 2.82-1.04 4.258-1.55 1.438-.51 3.004-.918 4.7-1.22 1.695-.303 3.228-.278 4.598.073 1.37.352 2.54.968 3.512 1.85 1.86 1.676 3.083 4.163 3.67 7.46.643 3.63.367 7.626-.827 11.99-1.265 4.55-3.292 8.432-6.083 11.652-3.2 3.598-6.922 5.775-11.17 6.532-.724.13-1.677.215-2.858.256zm7.75-7.71c2.042-1.896 3.618-5.358 4.73-10.39.623-2.798.957-5.122 1.003-6.967.045-1.845-.022-3.28-.203-4.302-.182-1.022-.68-1.826-1.498-2.413-.817-.585-1.967-.747-3.45-.482-.055 2.937-.156 6.102-.3 9.497-.234 5.758-.328 10.777-.28 15.057zM377.257 65.137c-2.38-1.345-3.76-3.107-4.148-5.284-.265-1.484-.076-3.007.564-4.567.64-1.56 1.58-3.013 2.818-4.357 1.24-1.345 2.712-2.517 4.42-3.52 1.706-1 3.382-1.65 5.03-1.942 1.645-.293 3.04-.32 4.187-.083 1.145.238 2.145.656 3 1.252 1.628 1.14 2.635 2.797 3.02 4.974.516 2.904-.207 5.62-2.17 8.147-.64.795-1.416 1.495-2.327 2.1 2.66 1.975 4.255 4.448 4.782 7.416.31 1.75.204 3.495-.32 5.238-.522 1.746-1.382 3.354-2.58 4.826-2.577 3.284-5.99 5.304-10.236 6.06-4.973.887-8.466-.04-10.48-2.776-.72-.995-1.195-2.143-1.427-3.447-.23-1.302-.31-2.6-.232-3.89.078-1.29.346-2.553.805-3.79 1.032-2.806 2.795-4.923 5.292-6.356zm11.683 6.112c-.273-1.535-.833-2.584-1.68-3.148-.847-.564-1.715-.766-2.604-.607-.89.158-1.738.497-2.545 1.015-.807.52-1.52 1.14-2.14 1.862-1.406 1.647-1.98 3.195-1.722 4.646.152.858.623 1.548 1.412 2.07.788.524 1.9.658 3.332.403s2.543-.597 3.333-1.027c.79-.43 1.407-.922 1.852-1.478.78-.957 1.035-2.203.763-3.736zm-1.342-11.86c.415-.533.73-1.108.942-1.725.213-.616.28-1.155.197-1.618-.082-.462-.257-.83-.527-1.106-.27-.274-.587-.48-.95-.62-.724-.246-1.505-.293-2.345-.144-.84.15-1.51.396-2.008.74-.5.345-.895.747-1.187 1.208-.557.883-.75 1.802-.58 2.758.17.957.545 1.682 1.125 2.173.58.493 1.232.674 1.956.545.725-.13 1.365-.396 1.922-.802.556-.405 1.04-.875 1.456-1.408zM168.04 116.508c-2.547 2.645-4.947 4.194-7.2 4.652-2.492.505-4.554.16-6.184-1.035-1.47-1.067-2.356-2.573-2.66-4.52-.304-1.946-.17-3.86.398-5.742.57-1.882 1.472-3.71 2.71-5.488 2.653-3.99 6.123-6.803 10.412-8.435.795-.32 1.738-.593 2.83-.815 2.87-.582 5.784-.29 8.75.875-.233 2.577-.428 5.167-.586 7.768l-.464 7.863c4.685-4.282 6.648-8.855 5.89-13.72-.535-3.425-2.252-5.847-5.15-7.268-2.595-1.28-5.805-1.534-9.628-.758-2.63.534-5.174 1.49-7.635 2.874-2.46 1.382-4.61 3.123-6.45 5.222-1.837 2.1-3.214 4.506-4.13 7.22-.914 2.716-1.14 5.552-.68 8.51.463 2.958 1.352 5.73 2.672 8.312l-5.534 8.89c-2.757-4.58-4.512-9.282-5.265-14.108-.94-6.032-.113-11.78 2.486-17.247 2.343-4.85 5.904-9.005 10.682-12.465 4.49-3.28 9.277-5.434 14.365-6.466 6.043-1.226 11.138-.17 15.286 3.163 1.884 1.464 3.41 3.282 4.576 5.455 1.165 2.172 1.94 4.475 2.318 6.907.38 2.433.343 4.91-.11 7.43-.45 2.52-1.335 4.87-2.65 7.042-1.318 2.175-3.1 4.07-5.347 5.692-2.247 1.62-4.976 2.756-8.184 3.406-2.253.457-3.866.282-4.837-.525-.357-.248-.574-.626-.653-1.133-.075-.502-.086-1.022-.028-1.556zm1.574-15.978c-.57-.044-1.257.014-2.06.177-.802.162-1.747.595-2.834 1.297-1.088.703-2.03 1.556-2.823 2.56-1.86 2.304-2.598 4.683-2.215 7.135.146.933.51 1.64 1.098 2.125.585.484 1.425.614 2.518.393 1.844-.374 3.545-1.2 5.107-2.48l1.21-11.208zM125.796 106.79v1.204c0 9.627-5.405 19.856-16.215 24.068-3.002 1.203-6.004 1.805-10.208 1.805-3.603 0-7.206-.602-10.21-1.805-1.2-.602-3.002-1.203-4.203-1.805h3.602c3.603 0 7.206-1.805 10.21-3.61-2.403 0-4.205-1.203-6.006-2.407-.6-1.203-1.802-2.407-2.402-4.212h1.802s1.802 0 2.402-.602c-4.204-.602-7.206-4.212-7.206-8.424 1.2.602 2.402.602 4.204.602-2.402-1.203-4.204-4.212-4.204-7.22 0-1.805.6-3.008 1.2-4.814 1.202 1.805 2.403 3.008 4.205 4.212 3.603 3.008 7.807 4.814 12.61 5.415.602 0 1.202 0 1.803.602v-1.806c0-6.017 4.204-10.23 9.008-10.23 2.402 0 4.804 1.204 6.606 3.01 1.802-.603 4.204-1.204 6.005-2.408-.602 2.407-2.403 4.212-4.205 4.814 1.802 0 3.603-.602 5.405-1.203-1.2 2.408-2.402 3.61-4.204 4.814z"/></svg>